<?xml version="1.0" encoding="UTF-8" standalone="no"?>
<!DOCTYPE svg PUBLIC "-//W3C//DTD SVG 1.1//EN"
 "http://www.w3.org/Graphics/SVG/1.1/DTD/svg11.dtd">
<!-- Generated by graphviz version 2.42.4 (0)
 -->
<!-- Title: IntlMesh Pages: 1 -->
<svg width="348pt" height="330pt"
 viewBox="21.60 21.60 325.98 308.16" xmlns="http://www.w3.org/2000/svg" xmlns:xlink="http://www.w3.org/1999/xlink">
<g id="graph0" class="graph" transform="scale(1 1) rotate(0) translate(25.6 304.16)">
<title>IntlMesh</title>
<!-- IT -->
<g id="node1" class="node">
<title>IT</title>
<path fill="#fde2d4" stroke="#c0531c" stroke-width="2" d="M201.35,-50C201.35,-50 146.35,-50 146.35,-50 140.35,-50 134.35,-44 134.35,-38 134.35,-38 134.35,-12 134.35,-12 134.35,-6 140.35,0 146.35,0 146.35,0 201.35,0 201.35,0 207.35,0 213.35,-6 213.35,-12 213.35,-12 213.35,-38 213.35,-38 213.35,-44 207.35,-50 201.35,-50"/>
<text text-anchor="middle" x="173.85" y="-30.2" font-family="Helvetica,sans-Serif" font-weight="bold" font-size="16.00">IT</text>
<text text-anchor="middle" x="173.85" y="-12.2" font-family="Helvetica,sans-Serif" font-weight="bold" font-size="16.00">222</text>
</g>
<!-- SE -->
<g id="node2" class="node">
<title>SE</title>
<path fill="#dde8fb" stroke="#1a4fa3" stroke-width="2" d="M284.38,-164.28C284.38,-164.28 229.38,-164.28 229.38,-164.28 223.38,-164.28 217.38,-158.28 217.38,-152.28 217.38,-152.28 217.38,-126.28 217.38,-126.28 217.38,-120.28 223.38,-114.28 229.38,-114.28 229.38,-114.28 284.38,-114.28 284.38,-114.28 290.38,-114.28 296.38,-120.28 296.38,-126.28 296.38,-126.28 296.38,-152.28 296.38,-152.28 296.38,-158.28 290.38,-164.28 284.38,-164.28"/>
<text text-anchor="middle" x="256.88" y="-144.48" font-family="Helvetica,sans-Serif" font-weight="bold" font-size="16.00">SE</text>
<text text-anchor="middle" x="256.88" y="-126.48" font-family="Helvetica,sans-Serif" font-weight="bold" font-size="16.00">240</text>
</g>
<!-- IT&#45;&#45;SE -->
<g id="edge1" class="edge">
<title>IT&#45;&#45;SE</title>
<path fill="none" stroke="#5f6368" stroke-width="1.6" d="M192.07,-50.08C205.91,-69.13 224.86,-95.22 238.7,-114.26"/>
</g>
<!-- DE -->
<g id="node3" class="node">
<title>DE</title>
<path fill="#dde8fb" stroke="#1a4fa3" stroke-width="2" d="M67,-234.91C67,-234.91 12,-234.91 12,-234.91 6,-234.91 0,-228.91 0,-222.91 0,-222.91 0,-196.91 0,-196.91 0,-190.91 6,-184.91 12,-184.91 12,-184.91 67,-184.91 67,-184.91 73,-184.91 79,-190.91 79,-196.91 79,-196.91 79,-222.91 79,-222.91 79,-228.91 73,-234.91 67,-234.91"/>
<text text-anchor="middle" x="39.5" y="-215.11" font-family="Helvetica,sans-Serif" font-weight="bold" font-size="16.00">DE</text>
<text text-anchor="middle" x="39.5" y="-197.11" font-family="Helvetica,sans-Serif" font-weight="bold" font-size="16.00">262</text>
</g>
<!-- IT&#45;&#45;DE -->
<g id="edge2" class="edge">
<title>IT&#45;&#45;DE</title>
<path fill="none" stroke="#5f6368" stroke-width="1.6" d="M155.45,-50.32C129.72,-85.73 83.28,-149.65 57.68,-184.89"/>
</g>
<!-- ES -->
<g id="node4" class="node">
<title>ES</title>
<path fill="#dde8fb" stroke="#1a4fa3" stroke-width="2" d="M201.35,-278.56C201.35,-278.56 146.35,-278.56 146.35,-278.56 140.35,-278.56 134.35,-272.56 134.35,-266.56 134.35,-266.56 134.35,-240.56 134.35,-240.56 134.35,-234.56 140.35,-228.56 146.35,-228.56 146.35,-228.56 201.35,-228.56 201.35,-228.56 207.35,-228.56 213.35,-234.56 213.35,-240.56 213.35,-240.56 213.35,-266.56 213.35,-266.56 213.35,-272.56 207.35,-278.56 201.35,-278.56"/>
<text text-anchor="middle" x="173.85" y="-258.76" font-family="Helvetica,sans-Serif" font-weight="bold" font-size="16.00">ES</text>
<text text-anchor="middle" x="173.85" y="-240.76" font-family="Helvetica,sans-Serif" font-weight="bold" font-size="16.00">214</text>
</g>
<!-- IT&#45;&#45;ES -->
<g id="edge3" class="edge">
<title>IT&#45;&#45;ES</title>
<path fill="none" stroke="#5f6368" stroke-width="1.6" d="M173.85,-50.33C173.85,-94.38 173.85,-184.58 173.85,-228.46"/>
</g>
<!-- UA -->
<g id="node5" class="node">
<title>UA</title>
<path fill="#dde8fb" stroke="#1a4fa3" stroke-width="2" d="M67,-93.65C67,-93.65 12,-93.65 12,-93.65 6,-93.65 0,-87.65 0,-81.65 0,-81.65 0,-55.65 0,-55.65 0,-49.65 6,-43.65 12,-43.65 12,-43.65 67,-43.65 67,-43.65 73,-43.65 79,-49.65 79,-55.65 79,-55.65 79,-81.65 79,-81.65 79,-87.65 73,-93.65 67,-93.65"/>
<text text-anchor="middle" x="39.5" y="-73.85" font-family="Helvetica,sans-Serif" font-weight="bold" font-size="16.00">UA</text>
<text text-anchor="middle" x="39.5" y="-55.85" font-family="Helvetica,sans-Serif" font-weight="bold" font-size="16.00">255</text>
</g>
<!-- IT&#45;&#45;UA -->
<g id="edge4" class="edge">
<title>IT&#45;&#45;UA</title>
<path fill="none" stroke="#5f6368" stroke-width="1.6" d="M134.26,-37.86C116.93,-43.49 96.62,-50.09 79.26,-55.73"/>
</g>
<!-- SE&#45;&#45;DE -->
<g id="edge5" class="edge">
<title>SE&#45;&#45;DE</title>
<path fill="none" stroke="#5f6368" stroke-width="1.6" d="M217.26,-152.15C178.07,-164.89 118.43,-184.26 79.21,-197.01"/>
</g>
<!-- SE&#45;&#45;ES -->
<g id="edge6" class="edge">
<title>SE&#45;&#45;ES</title>
<path fill="none" stroke="#5f6368" stroke-width="1.6" d="M238.65,-164.36C224.81,-183.41 205.86,-209.5 192.02,-228.54"/>
</g>
<!-- SE&#45;&#45;UA -->
<g id="edge7" class="edge">
<title>SE&#45;&#45;UA</title>
<path fill="none" stroke="#5f6368" stroke-width="1.6" d="M217.26,-126.41C178.07,-113.68 118.43,-94.3 79.21,-81.55"/>
</g>
<!-- DE&#45;&#45;ES -->
<g id="edge8" class="edge">
<title>DE&#45;&#45;ES</title>
<path fill="none" stroke="#5f6368" stroke-width="1.6" d="M79.08,-222.77C96.42,-228.4 116.72,-235 134.08,-240.64"/>
</g>
<!-- DE&#45;&#45;UA -->
<g id="edge9" class="edge">
<title>DE&#45;&#45;UA</title>
<path fill="none" stroke="#5f6368" stroke-width="1.6" d="M39.5,-184.66C39.5,-158.94 39.5,-119.32 39.5,-93.69"/>
</g>
<!-- ES&#45;&#45;UA -->
<g id="edge10" class="edge">
<title>ES&#45;&#45;UA</title>
<path fill="none" stroke="#5f6368" stroke-width="1.6" d="M155.45,-228.24C129.72,-192.83 83.28,-128.91 57.68,-93.67"/>
</g>
</g>
</svg>
