<?xml version="1.0" encoding="UTF-8" standalone="no"?>
<!DOCTYPE svg PUBLIC "-//W3C//DTD SVG 1.1//EN"
 "http://www.w3.org/Graphics/SVG/1.1/DTD/svg11.dtd">
<!-- Generated by graphviz version 2.42.4 (0)
 -->
<!-- Title: NationalMesh Pages: 1 -->
<svg width="501pt" height="236pt"
 viewBox="21.60 21.60 479.82 214.80" xmlns="http://www.w3.org/2000/svg" xmlns:xlink="http://www.w3.org/1999/xlink">
<g id="graph0" class="graph" transform="scale(1 1) rotate(0) translate(25.6 210.8)">
<title>NationalMesh</title>
<!-- ES -->
<g id="node1" class="node">
<title>ES</title>
<path fill="#dde8fb" stroke="#1a4fa3" stroke-width="2" d="M60,-185.2C60,-185.2 12,-185.2 12,-185.2 6,-185.2 0,-179.2 0,-173.2 0,-173.2 0,-150.2 0,-150.2 0,-144.2 6,-138.2 12,-138.2 12,-138.2 60,-138.2 60,-138.2 66,-138.2 72,-144.2 72,-150.2 72,-150.2 72,-173.2 72,-173.2 72,-179.2 66,-185.2 60,-185.2"/>
<text text-anchor="middle" x="36" y="-165.3" font-family="Helvetica,sans-Serif" font-weight="bold" font-size="13.00">ES</text>
<text text-anchor="middle" x="36" y="-151.3" font-family="Helvetica,sans-Serif" font-weight="bold" font-size="13.00">214</text>
</g>
<!-- SE -->
<g id="node2" class="node">
<title>SE</title>
<path fill="#dde8fb" stroke="#1a4fa3" stroke-width="2" d="M140.01,-185.2C140.01,-185.2 92.01,-185.2 92.01,-185.2 86.01,-185.2 80.01,-179.2 80.01,-173.2 80.01,-173.2 80.01,-150.2 80.01,-150.2 80.01,-144.2 86.01,-138.2 92.01,-138.2 92.01,-138.2 140.01,-138.2 140.01,-138.2 146.01,-138.2 152.01,-144.2 152.01,-150.2 152.01,-150.2 152.01,-173.2 152.01,-173.2 152.01,-179.2 146.01,-185.2 140.01,-185.2"/>
<text text-anchor="middle" x="116.01" y="-165.3" font-family="Helvetica,sans-Serif" font-weight="bold" font-size="13.00">SE</text>
<text text-anchor="middle" x="116.01" y="-151.3" font-family="Helvetica,sans-Serif" font-weight="bold" font-size="13.00">240</text>
</g>
<!-- ES&#45;&#45;SE -->
<g id="edge1" class="edge">
<title>ES&#45;&#45;SE</title>
<path fill="none" stroke="#5f6368" stroke-width="1.2" d="M72.26,-161.7C74.74,-161.7 77.24,-161.7 79.72,-161.7"/>
</g>
<!-- DE -->
<g id="node3" class="node">
<title>DE</title>
<path fill="#dde8fb" stroke="#1a4fa3" stroke-width="2" d="M140.01,-47C140.01,-47 92.01,-47 92.01,-47 86.01,-47 80.01,-41 80.01,-35 80.01,-35 80.01,-12 80.01,-12 80.01,-6 86.01,0 92.01,0 92.01,0 140.01,0 140.01,0 146.01,0 152.01,-6 152.01,-12 152.01,-12 152.01,-35 152.01,-35 152.01,-41 146.01,-47 140.01,-47"/>
<text text-anchor="middle" x="116.01" y="-27.1" font-family="Helvetica,sans-Serif" font-weight="bold" font-size="13.00">DE</text>
<text text-anchor="middle" x="116.01" y="-13.1" font-family="Helvetica,sans-Serif" font-weight="bold" font-size="13.00">262</text>
</g>
<!-- ES&#45;&#45;DE -->
<g id="edge2" class="edge">
<title>ES&#45;&#45;DE</title>
<path fill="none" stroke="#5f6368" stroke-width="1.2" d="M49.75,-137.94C64.41,-112.63 87.48,-72.78 102.17,-47.41"/>
</g>
<!-- UA -->
<g id="node4" class="node">
<title>UA</title>
<path fill="#dde8fb" stroke="#1a4fa3" stroke-width="2" d="M60,-47C60,-47 12,-47 12,-47 6,-47 0,-41 0,-35 0,-35 0,-12 0,-12 0,-6 6,0 12,0 12,0 60,0 60,0 66,0 72,-6 72,-12 72,-12 72,-35 72,-35 72,-41 66,-47 60,-47"/>
<text text-anchor="middle" x="36" y="-27.1" font-family="Helvetica,sans-Serif" font-weight="bold" font-size="13.00">UA</text>
<text text-anchor="middle" x="36" y="-13.1" font-family="Helvetica,sans-Serif" font-weight="bold" font-size="13.00">255</text>
</g>
<!-- ES&#45;&#45;UA -->
<g id="edge3" class="edge">
<title>ES&#45;&#45;UA</title>
<path fill="none" stroke="#5f6368" stroke-width="1.2" d="M36,-137.94C36,-112.63 36,-72.78 36,-47.41"/>
</g>
<!-- IT -->
<g id="node5" class="node">
<title>IT</title>
<path fill="#fde2d4" stroke="#c0531c" stroke-width="2" d="M249.11,-116.1C249.11,-116.1 201.11,-116.1 201.11,-116.1 195.11,-116.1 189.11,-110.1 189.11,-104.1 189.11,-104.1 189.11,-81.1 189.11,-81.1 189.11,-75.1 195.11,-69.1 201.11,-69.1 201.11,-69.1 249.11,-69.1 249.11,-69.1 255.11,-69.1 261.11,-75.1 261.11,-81.1 261.11,-81.1 261.11,-104.1 261.11,-104.1 261.11,-110.1 255.11,-116.1 249.11,-116.1"/>
<text text-anchor="middle" x="225.11" y="-96.2" font-family="Helvetica,sans-Serif" font-weight="bold" font-size="13.00">IT</text>
<text text-anchor="middle" x="225.11" y="-82.2" font-family="Helvetica,sans-Serif" font-weight="bold" font-size="13.00">222</text>
</g>
<!-- ES&#45;&#45;IT -->
<g id="edge4" class="edge">
<title>ES&#45;&#45;IT</title>
<path fill="none" stroke="#5f6368" stroke-width="1.2" d="M70.78,-137.98C72.79,-136.92 74.81,-135.91 76.81,-135 113.46,-118.23 158.27,-106.53 188.98,-99.73"/>
</g>
<!-- SE&#45;&#45;DE -->
<g id="edge5" class="edge">
<title>SE&#45;&#45;DE</title>
<path fill="none" stroke="#5f6368" stroke-width="1.2" d="M116.01,-137.94C116.01,-112.63 116.01,-72.78 116.01,-47.41"/>
</g>
<!-- SE&#45;&#45;UA -->
<g id="edge6" class="edge">
<title>SE&#45;&#45;UA</title>
<path fill="none" stroke="#5f6368" stroke-width="1.2" d="M102.25,-137.94C87.6,-112.63 64.53,-72.78 49.84,-47.41"/>
</g>
<!-- SE&#45;&#45;IT -->
<g id="edge7" class="edge">
<title>SE&#45;&#45;IT</title>
<path fill="none" stroke="#5f6368" stroke-width="1.2" d="M152.03,-138.88C163.83,-131.41 176.93,-123.11 188.75,-115.63"/>
</g>
<!-- DE&#45;&#45;UA -->
<g id="edge8" class="edge">
<title>DE&#45;&#45;UA</title>
<path fill="none" stroke="#5f6368" stroke-width="1.2" d="M79.75,-23.5C77.27,-23.5 74.77,-23.5 72.29,-23.5"/>
</g>
<!-- DE&#45;&#45;IT -->
<g id="edge9" class="edge">
<title>DE&#45;&#45;IT</title>
<path fill="none" stroke="#5f6368" stroke-width="1.2" d="M152.03,-46.32C163.83,-53.79 176.93,-62.08 188.75,-69.57"/>
</g>
<!-- UA&#45;&#45;IT -->
<g id="edge10" class="edge">
<title>UA&#45;&#45;IT</title>
<path fill="none" stroke="#5f6368" stroke-width="1.2" d="M70.78,-47.21C72.79,-48.28 74.81,-49.28 76.81,-50.2 113.46,-66.96 158.27,-78.67 188.98,-85.47"/>
</g>
<!-- Z1 -->
<g id="node6" class="node">
<title>Z1</title>
<path fill="#dff3e0" stroke="#1e7d34" stroke-width="2" d="M358.21,-185.2C358.21,-185.2 310.21,-185.2 310.21,-185.2 304.21,-185.2 298.21,-179.2 298.21,-173.2 298.21,-173.2 298.21,-150.2 298.21,-150.2 298.21,-144.2 304.21,-138.2 310.21,-138.2 310.21,-138.2 358.21,-138.2 358.21,-138.2 364.21,-138.2 370.21,-144.2 370.21,-150.2 370.21,-150.2 370.21,-173.2 370.21,-173.2 370.21,-179.2 364.21,-185.2 358.21,-185.2"/>
<text text-anchor="middle" x="334.21" y="-165.3" font-family="Helvetica,sans-Serif" font-weight="bold" font-size="13.00">IT&#45;Z1</text>
<text text-anchor="middle" x="334.21" y="-151.3" font-family="Helvetica,sans-Serif" font-weight="bold" font-size="13.00">2221</text>
</g>
<!-- IT&#45;&#45;Z1 -->
<g id="edge11" class="edge">
<title>IT&#45;&#45;Z1</title>
<path fill="none" stroke="#5f6368" stroke-width="1.2" d="M261.14,-115.41C272.93,-122.88 286.03,-131.18 297.85,-138.67"/>
</g>
<!-- Z2 -->
<g id="node7" class="node">
<title>Z2</title>
<path fill="#dff3e0" stroke="#1e7d34" stroke-width="2" d="M438.22,-185.2C438.22,-185.2 390.22,-185.2 390.22,-185.2 384.22,-185.2 378.22,-179.2 378.22,-173.2 378.22,-173.2 378.22,-150.2 378.22,-150.2 378.22,-144.2 384.22,-138.2 390.22,-138.2 390.22,-138.2 438.22,-138.2 438.22,-138.2 444.22,-138.2 450.22,-144.2 450.22,-150.2 450.22,-150.2 450.22,-173.2 450.22,-173.2 450.22,-179.2 444.22,-185.2 438.22,-185.2"/>
<text text-anchor="middle" x="414.22" y="-165.3" font-family="Helvetica,sans-Serif" font-weight="bold" font-size="13.00">IT&#45;Z2</text>
<text text-anchor="middle" x="414.22" y="-151.3" font-family="Helvetica,sans-Serif" font-weight="bold" font-size="13.00">2222</text>
</g>
<!-- IT&#45;&#45;Z2 -->
<g id="edge12" class="edge">
<title>IT&#45;&#45;Z2</title>
<path fill="none" stroke="#5f6368" stroke-width="1.2" d="M261.24,-99.73C291.95,-106.53 336.76,-118.23 373.41,-135 375.41,-135.91 377.43,-136.92 379.44,-137.98"/>
</g>
<!-- Z3 -->
<g id="node8" class="node">
<title>Z3</title>
<path fill="#dff3e0" stroke="#1e7d34" stroke-width="2" d="M438.22,-47C438.22,-47 390.22,-47 390.22,-47 384.22,-47 378.22,-41 378.22,-35 378.22,-35 378.22,-12 378.22,-12 378.22,-6 384.22,0 390.22,0 390.22,0 438.22,0 438.22,0 444.22,0 450.22,-6 450.22,-12 450.22,-12 450.22,-35 450.22,-35 450.22,-41 444.22,-47 438.22,-47"/>
<text text-anchor="middle" x="414.22" y="-27.1" font-family="Helvetica,sans-Serif" font-weight="bold" font-size="13.00">IT&#45;Z3</text>
<text text-anchor="middle" x="414.22" y="-13.1" font-family="Helvetica,sans-Serif" font-weight="bold" font-size="13.00">2223</text>
</g>
<!-- IT&#45;&#45;Z3 -->
<g id="edge13" class="edge">
<title>IT&#45;&#45;Z3</title>
<path fill="none" stroke="#5f6368" stroke-width="1.2" d="M261.24,-85.47C291.95,-78.67 336.76,-66.96 373.41,-50.2 375.41,-49.28 377.43,-48.28 379.44,-47.21"/>
</g>
<!-- Z4 -->
<g id="node9" class="node">
<title>Z4</title>
<path fill="#dff3e0" stroke="#1e7d34" stroke-width="2" d="M358.21,-47C358.21,-47 310.21,-47 310.21,-47 304.21,-47 298.21,-41 298.21,-35 298.21,-35 298.21,-12 298.21,-12 298.21,-6 304.21,0 310.21,0 310.21,0 358.21,0 358.21,0 364.21,0 370.21,-6 370.21,-12 370.21,-12 370.21,-35 370.21,-35 370.21,-41 364.21,-47 358.21,-47"/>
<text text-anchor="middle" x="334.21" y="-27.1" font-family="Helvetica,sans-Serif" font-weight="bold" font-size="13.00">IT&#45;Z4</text>
<text text-anchor="middle" x="334.21" y="-13.1" font-family="Helvetica,sans-Serif" font-weight="bold" font-size="13.00">2224</text>
</g>
<!-- IT&#45;&#45;Z4 -->
<g id="edge14" class="edge">
<title>IT&#45;&#45;Z4</title>
<path fill="none" stroke="#5f6368" stroke-width="1.2" d="M261.14,-69.78C272.93,-62.31 286.03,-54.01 297.85,-46.53"/>
</g>
<!-- Z1&#45;&#45;Z2 -->
<g id="edge15" class="edge">
<title>Z1&#45;&#45;Z2</title>
<path fill="none" stroke="#5f6368" stroke-width="1.2" d="M370.47,-161.7C372.95,-161.7 375.45,-161.7 377.93,-161.7"/>
</g>
<!-- Z1&#45;&#45;Z3 -->
<g id="edge16" class="edge">
<title>Z1&#45;&#45;Z3</title>
<path fill="none" stroke="#5f6368" stroke-width="1.2" d="M347.97,-137.94C362.62,-112.63 385.69,-72.78 400.38,-47.41"/>
</g>
<!-- Z1&#45;&#45;Z4 -->
<g id="edge17" class="edge">
<title>Z1&#45;&#45;Z4</title>
<path fill="none" stroke="#5f6368" stroke-width="1.2" d="M334.21,-137.94C334.21,-112.63 334.21,-72.78 334.21,-47.41"/>
</g>
<!-- Z2&#45;&#45;Z3 -->
<g id="edge18" class="edge">
<title>Z2&#45;&#45;Z3</title>
<path fill="none" stroke="#5f6368" stroke-width="1.2" d="M414.22,-137.94C414.22,-112.63 414.22,-72.78 414.22,-47.41"/>
</g>
<!-- Z2&#45;&#45;Z4 -->
<g id="edge19" class="edge">
<title>Z2&#45;&#45;Z4</title>
<path fill="none" stroke="#5f6368" stroke-width="1.2" d="M400.47,-137.94C385.81,-112.63 362.74,-72.78 348.05,-47.41"/>
</g>
<!-- Z3&#45;&#45;Z4 -->
<g id="edge20" class="edge">
<title>Z3&#45;&#45;Z4</title>
<path fill="none" stroke="#5f6368" stroke-width="1.2" d="M377.96,-23.5C375.48,-23.5 372.98,-23.5 370.5,-23.5"/>
</g>
</g>
</svg>
